<?xml version="1.0" encoding="UTF-8"?>
<svg id="Calque_1" xmlns="http://www.w3.org/2000/svg" version="1.1" viewBox="0 0 80 80">
  <!-- Generator: Adobe Illustrator 29.1.0, SVG Export Plug-In . SVG Version: 2.1.0 Build 142)  -->
  <defs>
    <style>
      .st0 {
        fill: #1d1d1b;
      }

      .st1 {
        display: none;
      }
    </style>
  </defs>
  <g id="Calque_1-2" class="st1">
    <path class="st0" d="M-6.7-248.5v124.9h-27.5v-124.9H-6.7Z"/>
    <path class="st0" d="M77-248.5l46.7,124.9h-28.5l-9.4-27.8h-46.7l-9.8,27.8H1.6l47.2-124.9s28.2,0,28.2,0ZM78.6-171.9l-15.8-45.9h-.3l-16.3,45.9h32.4Z"/>
    <path class="st0" d="M199.1-248.5c5.6,0,10.6.9,15.1,2.7,4.5,1.8,8.3,4.3,11.5,7.4,3.2,3.1,5.7,6.8,7.4,10.9s2.5,8.6,2.5,13.4c0,7.4-1.5,13.7-4.6,19.1-3.1,5.4-8.1,9.4-15.1,12.2v.4c3.4.9,6.2,2.4,8.4,4.3,2.2,1.9,4,4.2,5.4,6.8s2.4,5.5,3.1,8.7c.6,3.1,1.1,6.3,1.3,9.4.1,2,.2,4.3.4,7,.1,2.7.3,5.4.6,8.2s.8,5.5,1.4,8,1.6,4.6,2.9,6.4h-27.5c-1.5-4-2.4-8.7-2.8-14.2-.4-5.5-.9-10.7-1.6-15.8-.9-6.5-2.9-11.3-5.9-14.4-3-3-8-4.6-14.9-4.6h-27.5v48.8h-27.5v-124.9h67.4v.2h0ZM189.3-192c6.3,0,11-1.4,14.2-4.2,3.1-2.8,4.7-7.4,4.7-13.6s-1.6-10.5-4.7-13.2-7.9-4.1-14.2-4.1h-30.1v35.2h30.1Z"/>
    <path class="st0" d="M317.6-248.5l46.7,124.9h-28.5l-9.5-27.8h-46.7l-9.8,27.8h-27.6l47.2-124.9h28.2,0ZM319.2-171.9l-15.8-45.9h-.4l-16.3,45.9h32.5,0Z"/>
    <path class="st0" d="M428.8-248.5c7.8,0,14.5,1.1,20,3.4,5.5,2.3,9.9,5.3,13.4,9,3.4,3.7,6,8,7.5,12.8,1.6,4.8,2.4,9.7,2.4,14.9s-.8,9.9-2.4,14.8c-1.6,4.8-4.1,9.1-7.5,12.9-3.4,3.7-7.9,6.7-13.4,9s-12.1,3.4-20,3.4h-28.9v44.8h-27.5v-124.9h56.4ZM421.3-189.7c3.1,0,6.2-.2,9.1-.7s5.5-1.4,7.7-2.7,4-3.2,5.3-5.7c1.3-2.4,2-5.7,2-9.6s-.7-7.2-2-9.6-3.1-4.3-5.3-5.7c-2.2-1.3-4.8-2.2-7.7-2.7-2.9-.5-6-.7-9.1-.7h-21.4v37.4h21.4Z"/>
    <path class="st0" d="M535.7-248.5l46.7,124.9h-28.5l-9.5-27.8h-46.7l-9.8,27.8h-27.6l47.2-124.9h28.2ZM537.3-171.9l-15.8-45.9h-.3l-16.3,45.9h32.4,0Z"/>
    <path class="st0" d="M618-248.5v124.9h-27.5v-124.9h27.5Z"/>
    <path class="st0" d="M660.4-154.4c1.5,2.9,3.5,5.3,6,7.1s5.5,3.1,8.8,4c3.4.9,6.9,1.3,10.5,1.3s5.1-.2,7.9-.6,5.4-1.2,7.9-2.4,4.5-2.8,6.1-4.8,2.5-4.6,2.5-7.8-1.1-6.1-3.2-8.2-5-3.9-8.5-5.2-7.5-2.6-11.9-3.7c-4.4-1.1-8.9-2.2-13.5-3.5-4.7-1.2-9.2-2.6-13.7-4.3-4.4-1.7-8.4-3.9-11.9-6.6s-6.3-6-8.5-10.1-3.2-8.9-3.2-14.6,1.4-12,4.1-16.7c2.7-4.7,6.3-8.7,10.8-11.8s9.5-5.5,15-7,11.2-2.3,16.8-2.3,12.8.7,18.8,2.2,11.3,3.8,16,7.1,8.4,7.4,11.1,12.5c2.7,5.1,4.1,11.2,4.1,18.5h-26.6c-.2-3.7-1-6.8-2.4-9.3-1.3-2.4-3.1-4.4-5.3-5.8-2.2-1.4-4.8-2.4-7.6-3-2.9-.6-6-.9-9.4-.9s-4.4.2-6.7.7c-2.2.5-4.2,1.3-6,2.4-1.8,1.2-3.3,2.6-4.5,4.4-1.2,1.8-1.8,4-1.8,6.6s.5,4.4,1.4,5.9,2.8,2.9,5.5,4.2,6.5,2.6,11.4,3.9c4.8,1.3,11.2,2.9,19,4.9,2.3.5,5.6,1.3,9.7,2.5s8.2,3.2,12.3,5.9,7.6,6.3,10.6,10.8,4.5,10.2,4.5,17.2-1.1,11-3.3,15.9-5.5,9.1-9.9,12.7-9.8,6.3-16.3,8.3-14,3-22.5,3-13.6-.8-20-2.5c-6.5-1.7-12.2-4.3-17.2-8s-8.9-8.2-11.8-13.8c-2.9-5.6-4.3-12.2-4.2-19.9h26.6c0,4.2.8,7.8,2.3,10.7h.2Z"/>
    <path class="st0" d="M806.5-248.5c7.8,0,14.5,1.1,20,3.4,5.5,2.3,10,5.3,13.4,9s6,8,7.5,12.8c1.6,4.8,2.4,9.7,2.4,14.9s-.8,9.9-2.4,14.8-4.1,9.1-7.5,12.9c-3.4,3.7-7.9,6.7-13.4,9s-12.1,3.4-20,3.4h-28.9v44.8h-27.5v-124.9h56.4ZM799-189.7c3.2,0,6.2-.2,9.1-.7,2.9-.5,5.5-1.4,7.7-2.7s4-3.2,5.3-5.7,2-5.7,2-9.6-.7-7.2-2-9.6-3.1-4.3-5.3-5.7c-2.2-1.3-4.8-2.2-7.7-2.7s-6-.7-9.1-.7h-21.3v37.4h21.3Z"/>
    <path class="st0" d="M913.5-248.5l46.7,124.9h-28.5l-9.5-27.8h-46.7l-9.8,27.8h-27.7l47.2-124.9h28.3ZM915-171.9l-15.8-45.9h-.3l-16.3,45.9h32.4,0Z"/>
    <path class="st0" d="M995.7-248.5v124.9h-27.5v-124.9h27.5Z"/>
    <path class="st0" d="M1044.2-123.6l-40.4-124.9h28.2l27.8,87.9h.3l28.2-87.9h28.3l-41.5,124.9h-31,0Z"/>
    <path class="st0" d="M1178.8-248.5l46.7,124.9h-28.5l-9.4-27.8h-46.7l-9.8,27.8h-27.7l47.2-124.9h28.2ZM1180.4-171.9l-15.8-45.9h-.3l-16.3,45.9h32.4Z"/>
  </g>
  <g id="Calque_2">
    <g>
      <polygon points="18.9 19.4 4.3 60.6 13.1 60.6 13.2 60 23.3 32 18.9 19.4"/>
      <polygon points="29.5 44.6 33.9 32 29.6 19.4 25.1 32 24.2 34.7 14.9 60.6 23.7 60.6 23.9 60 28.5 47.3 29.5 44.6"/>
      <polygon points="40.1 44.6 44.6 32 40.2 19.4 35.8 32 34.8 34.7 30.3 47.3 29.4 50 25.6 60.6 33.1 60.6 34.4 60.6 34.6 60 34.7 59.9 39.2 47.3 40.1 44.6"/>
      <polygon points="50.8 44.6 55.3 32 50.9 19.4 46.5 32 45.5 34.7 41 47.3 40.1 50 36.3 60.6 43.8 60.6 45.1 60.6 45.3 60 45.4 59.9 49.8 47.3 50.8 44.6"/>
      <polygon points="61.6 19.4 57.1 32 56.1 34.7 51.7 47.3 50.8 50 47 60.6 54.4 60.6 56.3 60.6 65.1 60.6 67 60.6 75.7 60.6 61.6 19.4"/>
    </g>
  </g>
</svg>